<svg width="800" height="320" viewBox="0 0 800 320" fill="none" xmlns="http://www.w3.org/2000/svg" role="img" aria-label="6699 total tracked clones; 36 repositories">
<desc>2026-09-24: 36 clones; 2026-09-25: 78 clones; 2026-09-26: 25 clones; 2026-09-27: 14 clones; 2026-09-28: 13 clones; 2026-09-29: 9 clones; 2026-09-30: 57 clones; 2026-10-01: 25 clones; 2026-10-02: 18 clones; 2026-10-03: 527 clones; 2026-10-04: 93 clones; 2026-10-05: 99 clones; 2026-10-06: 25 clones; 2026-10-07: 0 clones. Latest day may be incomplete.</desc>
<defs>
  <pattern id="grid" width="24" height="24" patternUnits="userSpaceOnUse">
    <path d="M24 0H0V24" fill="none" stroke="#263244" stroke-opacity=".22"/>
  </pattern>
  <clipPath id="plot"><rect x="394" y="234" width="364" height="42" rx="4"/></clipPath>
</defs>
<rect x="1" y="1" width="798" height="318" rx="18" fill="#080D14" stroke="#263244" stroke-width="2"/>
<rect x="2" y="2" width="796" height="316" rx="17" fill="url(#grid)"/>
<path d="M1 18C1 8.6 8.6 1 18 1H782C791.4 1 799 8.6 799 18V66H1V18Z" fill="#0D141E"/>
<line x1="1" y1="66" x2="799" y2="66" stroke="#263244"/>
<rect x="1" y="66" width="4" height="188" fill="#32D7FF"/>
<g font-family="'Segoe UI', Ubuntu, Arial, sans-serif">
  <rect x="30" y="27" width="12" height="12" rx="2" fill="#32D7FF"/>
  <rect x="47" y="27" width="12" height="12" rx="2" fill="#32D7FF" fill-opacity=".3"/>
  <text x="75" y="38" fill="#E7EEF7" font-size="12" font-weight="800">PREETHESH / REPOSITORY INTELLIGENCE</text>
  <text x="75" y="51" fill="#526174" font-size="9">ACCOUNT-WIDE CLONE TELEMETRY</text>
  <rect x="683" y="22" width="82" height="28" rx="14" fill="#0A2428" stroke="#176273"/>
  <circle cx="701" cy="36" r="3" fill="#32D7FF"/>
  <text x="712" y="40" fill="#7DE9FF" font-size="9" font-weight="800">DAILY</text>

  <text x="40" y="92" fill="#526174" font-size="9" font-weight="700">SYSTEM METRIC / 01</text>
  <text x="40" y="117" fill="#94A3B8" font-size="11" font-weight="700">TOTAL TRACKED CLONES</text>
  <text x="35" y="180" fill="#F8FAFC" font-size="68" font-weight="800">6,699</text>
  <line x1="40" y1="193" x2="348" y2="193" stroke="#263244"/>

  <rect x="40" y="211" width="145" height="61" rx="8" fill="#0D151F" stroke="#263244"/>
  <text x="56" y="239" fill="#32D7FF" font-size="21" font-weight="800">1,019</text>
  <text x="56" y="257" fill="#64748B" font-size="9" font-weight="700">LAST 14 DAYS</text>
  <rect x="197" y="211" width="151" height="61" rx="8" fill="#0D151F" stroke="#263244"/>
  <text x="213" y="239" fill="#F8FAFC" font-size="21" font-weight="800">36</text>
  <text x="213" y="257" fill="#64748B" font-size="9" font-weight="700">REPOS</text>
  <text x="40" y="297" fill="#526174" font-size="9">ARCHIVE ACTIVE / SINCE 29 JUL 2026</text>

  <line x1="373" y1="86" x2="373" y2="296" stroke="#263244"/>
  <text x="397" y="91" fill="#E7EEF7" font-size="12" font-weight="800">LEADERBOARD</text>
  <text x="755" y="91" fill="#526174" font-size="9" font-weight="700" text-anchor="end">CLONES</text>
  <text x="397" y="112" fill="#526174" font-size="10" font-weight="700">01</text><text x="429" y="112" fill="#D7E1EC" font-size="12" font-weight="600">Gavel-Xl</text><text x="755" y="112" fill="#32D7FF" font-size="12" font-weight="800" text-anchor="end">1,147</text><rect x="429" y="124" width="260" height="3" rx="1.5" fill="#172333"/><rect x="429" y="124" width="260" height="3" rx="1.5" fill="#32D7FF"/><text x="397" y="155" fill="#526174" font-size="10" font-weight="700">02</text><text x="429" y="155" fill="#D7E1EC" font-size="12" font-weight="600">Humsafar</text><text x="755" y="155" fill="#32D7FF" font-size="12" font-weight="800" text-anchor="end">828</text><rect x="429" y="167" width="260" height="3" rx="1.5" fill="#172333"/><rect x="429" y="167" width="188" height="3" rx="1.5" fill="#32D7FF"/><text x="397" y="198" fill="#526174" font-size="10" font-weight="700">03</text><text x="429" y="198" fill="#D7E1EC" font-size="12" font-weight="600">Codex</text><text x="755" y="198" fill="#32D7FF" font-size="12" font-weight="800" text-anchor="end">772</text><rect x="429" y="210" width="260" height="3" rx="1.5" fill="#172333"/><rect x="429" y="210" width="175" height="3" rx="1.5" fill="#32D7FF"/>
  <line x1="397" y1="220" x2="755" y2="220" stroke="#263244"/>
  <text x="397" y="232" fill="#526174" font-size="8" font-weight="700">DAILY CLONES · 2026-09-24 — 2026-10-07 UTC</text>
  <g clip-path="url(#plot)">
    <line x1="397" y1="272" x2="755" y2="272" stroke="#263244" stroke-dasharray="3 6"/>
    <polyline points="397.0,269.7 424.5,267.0 452.1,270.4 479.6,271.1 507.2,271.2 534.7,271.4 562.2,268.3 589.8,270.4 617.3,270.8 644.8,238.0 672.4,266.0 699.9,265.6 727.5,270.4 755.0,272.0" fill="none" stroke="#32D7FF" stroke-width="3" stroke-linecap="round" stroke-linejoin="round"/>
  </g>
  <text x="755" y="297" fill="#526174" font-size="9" text-anchor="end">SYNC / OCT 07, 2026</text>
</g>
</svg>
